# xmcd
#
# Track frame offsets: 
#        150
#        13637
#        27761
#        41656
#        53548
#        66892
#        78265
#        90639
#        102616
#        116847
#        128372
#        139233
#        150378
#        161622
#        175076
#        187745
#        200327
#        212396
#        224768
#        237658
#        249348
#        260505
#        272584
#        283464
#
# Disc length: 3948 seconds
#
# Revision: 1
# Processed by: cddbd v1.5.2PL0 Copyright (c) Steve Scherf et al.
# Submitted via: ExactAudioCopy v1.1
#
DISCID=520f6a18
DTITLE=Georgia White - Complete Recorded Works in Chronological Order 
DTITLE=Volume 4 (1939-1941)
DYEAR=1994
DGENRE=Blues
TTITLE0=How Do You Think I Feel
TTITLE1=Fire in the Mountain
TTITLE2=When the Red Sun Turns to Gray
TTITLE3=Hydrant Love
TTITLE4=Do It Again
TTITLE5=Beggin' My Daddy
TTITLE6=What Have You Done to Me
TTITLE7=Take Me for a Buggy Ride
TTITLE8=Furniture Man
TTITLE9=I'm Doing What My Heart Says Do
TTITLE10=You Got to Drop the Sack
TTITLE11='Tain't Nobody's Fault But Yours
TTITLE12=Worried Head Blues
TTITLE13=Jazzin' Babies Blues
TTITLE14=Papa Pleaser
TTITLE15=Sensation Blues
TTITLE16=Late Hour Blues
TTITLE17=Panama Limited Blues
TTITLE18=You Ought to Be Ashamed of Yourself
TTITLE19=Mail Plane Blues
TTITLE20=Mama Knows What Papa Wants When Papa's Feeling Blue
TTITLE21=Come Around to My House
TTITLE22=Territory Blues
TTITLE23=When You're Away
EXTD=
EXTT0=
EXTT1=
EXTT2=
EXTT3=
EXTT4=
EXTT5=
EXTT6=
EXTT7=
EXTT8=
EXTT9=
EXTT10=
EXTT11=
EXTT12=
EXTT13=
EXTT14=
EXTT15=
EXTT16=
EXTT17=
EXTT18=
EXTT19=
EXTT20=
EXTT21=
EXTT22=
EXTT23=
PLAYORDER=
